# xmcd
#
# Track frame offsets: 
#        150
#        22765
#        56543
#        100339
#        139292
#        151217
#        185894
#        205630
#
# Disc length: 3396 seconds
#
# Revision: 1
# Processed by: cddbd v1.5.2PL0 Copyright (c) Steve Scherf et al.
# Submitted via: ExactAudioCopy v0.99pb5
#
DISCID=660d4208
DTITLE=Dave Douglas and Keystone - Moonshine
DYEAR=2007
DGENRE=Jazz
TTITLE0=Dog star
TTITLE1=Moonshine
TTITLE2=Married life
TTITLE3=Silent stars
TTITLE4=Scopes
TTITLE5=Flood plane
TTITLE6=Kitten
TTITLE7=Tough
EXTD=YEAR: 2007
EXTT0=
EXTT1=
EXTT2=
EXTT3=
EXTT4=
EXTT5=
EXTT6=
EXTT7=
PLAYORDER=
